<svg height="512pt" viewBox="0 0 512.00025 512" width="512pt" xmlns="http://www.w3.org/2000/svg"><path d="m23.488281 504.5c-4.089843 0-8.183593-1.5625-11.304687-4.683594-6.246094-6.242187-6.246094-16.367187 0-22.609375l61.582031-61.585937c6.242187-6.242188 16.367187-6.242188 22.613281 0 6.242188 6.246094 6.242188 16.367187 0 22.613281l-61.585937 61.582031c-3.121094 3.121094-7.210938 4.683594-11.304688 4.683594zm0 0" fill="#495059"/><path d="m316.894531 331.578125-136.472656-136.472656c-7.300781-7.300781-7.300781-19.136719 0-26.4375l67.808594-67.8125c7.300781-7.300781 19.140625-7.300781 26.441406 0l136.472656 136.472656c7.300781 7.300781 7.300781 19.140625 0 26.441406l-67.8125 67.808594c-7.300781 7.300781-19.136719 7.300781-26.4375 0zm0 0" fill="#fce68d"/><path d="m316.894531 331.578125c7.300781 7.300781 19.136719 7.300781 26.4375 0l67.8125-67.808594c7.300781-7.300781 7.300781-19.140625 0-26.441406l-24.449219-24.445313c-46.773437 58.742188-74.578124 72.777344-111.054687 77.445313zm0 0" fill="#f0d87c"/><path d="m79.0625 464.398438-31.460938-31.460938c-2.453124-2.453125-2.453124-6.433594 0-8.886719l17.402344-17.402343 40.347656 40.347656-17.402343 17.402344c-2.453125 2.453124-6.433594 2.453124-8.886719 0zm0 0" fill="#bebfc0"/><path d="m296.210938 310.894531-95.105469-95.105469-140.226563 157.773438c-7.65625 8.609375-7.269531 21.695312.875 29.839844l46.84375 46.84375c8.144532 8.144531 21.230469 8.527344 29.839844.875zm0 0" fill="#7397da"/><path d="m201.105469 215.789062-15.6875 17.652344 64.78125 64.78125c-62.710938 70.664063-118.472657 114.804688-161.589844 132.03125l19.988281 19.992188c8.148438 8.144531 21.230469 8.527344 29.839844.875l157.773438-140.226563zm0 0" fill="#6988c4"/><path d="m486.390625 72.296875-46.6875-46.6875c-16.175781-16.175781-39.960937-22.085937-61.824219-15.367187-35.25 10.835937-62.847656 38.433593-73.679687 73.683593l-10.925781 35.535157 99.265624 99.265624 35.535157-10.925781c35.253906-10.835937 62.847656-38.429687 73.683593-73.679687 6.71875-21.863282.808594-45.648438-15.367187-61.824219zm0 0" fill="#495059"/><path d="m351.253906 177.4375 41.285156 41.289062 35.535157-10.921874c35.25-10.835938 62.847656-38.433594 73.679687-73.683594 5.96875-19.417969 1.964844-40.347656-10.335937-56.121094-23.636719 56.996094-89.328125 93.558594-140.164063 99.4375zm0 0" fill="#41464f"/><path d="m351.582031 90.992188c0 4.089843-3.3125 7.402343-7.402343 7.402343-4.085938 0-7.398438-3.3125-7.398438-7.402343 0-4.085938 3.3125-7.398438 7.398438-7.398438 4.089843 0 7.402343 3.3125 7.402343 7.398438zm0 0" fill="#41464f"/><path d="m418.503906 178.726562c0 4.085938-3.3125 7.398438-7.398437 7.398438-4.089844 0-7.402344-3.3125-7.402344-7.398438 0-4.085937 3.3125-7.398437 7.402344-7.398437 4.085937 0 7.398437 3.3125 7.398437 7.398437zm0 0" fill="#495059"/><path d="m473.53125 144.121094c0 4.085937-3.3125 7.398437-7.402344 7.398437-4.085937 0-7.398437-3.3125-7.398437-7.398437 0-4.085938 3.3125-7.398438 7.398437-7.398438 4.089844 0 7.402344 3.3125 7.402344 7.398438zm0 0" fill="#495059"/><g fill="#41464f"><path d="m358.652344 126.820312c0 4.089844-3.3125 7.402344-7.398438 7.402344-4.089844 0-7.402344-3.3125-7.402344-7.402344 0-4.085937 3.3125-7.398437 7.402344-7.398437 4.085938 0 7.398438 3.3125 7.398438 7.398437zm0 0"/><path d="m384.375 98.394531c0 4.085938-3.3125 7.398438-7.402344 7.398438-4.085937 0-7.398437-3.3125-7.398437-7.398438 0-4.085937 3.3125-7.402343 7.398437-7.402343 4.089844 0 7.402344 3.316406 7.402344 7.402343zm0 0"/><path d="m411.105469 36.273438c0 4.085937-3.3125 7.402343-7.402344 7.402343-4.085937 0-7.398437-3.316406-7.398437-7.402343 0-4.085938 3.3125-7.398438 7.398437-7.398438 4.089844 0 7.402344 3.3125 7.402344 7.398438zm0 0"/></g><path d="m362 243.648438c0 21.421874-17.367188 38.789062-38.789062 38.789062-21.421876 0-38.789063-17.367188-38.789063-38.789062 0-21.425782 17.367187-38.792969 38.789063-38.792969 21.421874 0 38.789062 17.367187 38.789062 38.792969zm0 0" fill="#eb8d9a"/><path d="m350.640625 271.074219c8.066406-8.066407 11.835937-18.800781 11.3125-29.363281-18.832031 19.984374-34.710937 31.792968-50.390625 38.933593 13.34375 4.1875 28.503906 1.007813 39.078125-9.570312zm0 0" fill="#d67c88"/><path d="m196.523438 399.496094 26.265624-23.34375-86.941406-86.941406-23.34375 26.265624zm0 0" fill="#80bbe6"/><path d="m196.523438 399.496094 26.265624-23.34375-24.179687-24.179688c-8.886719 8.46875-17.578125 16.328125-26.046875 23.558594zm0 0" fill="#76acd4"/><path d="m112.503906 315.476562 84.019532 84.019532" fill="#80bbe6"/><path d="m222.789062 376.152344-86.941406-86.941406" fill="#80bbe6"/><path d="m491.695312 66.996094-46.691406-46.691406c-18.183594-18.183594-44.746094-24.785157-69.328125-17.230469-27.011719 8.304687-50.230469 26.015625-65.382812 49.871093-2.21875 3.496094-1.1875 8.128907 2.3125 10.351563 3.496093 2.21875 8.128906 1.1875 10.351562-2.3125 13.238281-20.84375 33.527344-36.316406 57.128907-43.574219 19.253906-5.917968 40.066406-.746094 54.3125 13.5l46.691406 46.691406c14.246094 14.246094 19.417968 35.058594 13.5 54.316407-10.117188 32.910156-35.808594 58.597656-68.71875 68.714843l-31.21875 9.597657-92.882813-92.878907 9.027344-29.363281c1.214844-3.960937-1.007813-8.15625-4.96875-9.371093-3.949219-1.21875-8.152344 1.003906-9.371094 4.964843l-6.691406 21.765625-9.792969-9.792968c-4.945312-4.949219-11.523437-7.675782-18.523437-7.675782-6.996094 0-13.574219 2.726563-18.523438 7.675782l-67.808593 67.808593c-10.214844 10.214844-10.214844 26.832031 0 37.046875l15.683593 15.683594-135.53125 152.484375c-9.625 10.832031-9.777343 26.980469-.773437 37.96875l-12.195313 12.199219c-2.605469 2.601562-4.039062 6.0625-4.039062 9.746094 0 3.265624 1.132812 6.355468 3.199219 8.828124l-34.582032 34.582032c-4.4375 4.4375-6.878906 10.335937-6.878906 16.609375 0 6.273437 2.441406 12.171875 6.878906 16.609375 4.4375 4.433594 10.335938 6.878906 16.609375 6.878906 6.273438 0 12.171875-2.445312 16.609375-6.878906l34.582032-34.585938c2.476562 2.070313 5.5625 3.203125 8.824218 3.203125 3.683594 0 7.144532-1.433593 9.75-4.039062l12.195313-12.199219c5.25 4.300781 11.789062 6.621094 18.515625 6.621094 1.921875 0 3.863281-.191406 5.792968-.578125 4.058594-.816407 6.691407-4.769531 5.875-8.828125-.8125-4.0625-4.757812-6.691406-8.828124-5.878906-4.699219.941406-9.523438-.511719-12.902344-3.894532l-3.242188-3.242187c-.003906-.003907-.003906-.003907-.007812-.003907 0-.003906-.003906-.003906-.003906-.007812l-43.589844-43.589844c-5.332032-5.328125-5.582032-13.917968-.574219-19.554687l46.339844-52.140625 72.773437 72.773437-36.316406 32.277344c-3.097656 2.75-3.375 7.492187-.625 10.585937 1.480469 1.667969 3.539062 2.519532 5.609375 2.519532 1.769531 0 3.550781-.625 4.976563-1.894532l136.664062-121.464843 15.683594 15.683593c4.945312 4.949219 11.527344 7.671876 18.523437 7.671876 6.996094 0 13.574219-2.722657 18.523438-7.671876l67.808593-67.8125c10.214844-10.210937 10.214844-26.832031 0-37.042968l-9.792968-9.792969 23.625-7.261719c37.667968-11.582031 67.070312-40.980468 78.648437-78.648437 7.554688-24.582031.953125-51.144531-17.230469-69.328125zm-462.203124 427.519531c-1.605469 1.601563-3.734376 2.484375-6.003907 2.484375s-4.398437-.882812-6.003906-2.488281c-1.601563-1.601563-2.484375-3.734375-2.484375-6s.882812-4.398438 2.488281-6.003907l34.539063-34.542968 12.003906 12.007812zm35.511718-77.257813 29.738282 29.742188-11.234376 11.234375-29.742187-29.742187zm131.824219-28.066406-74.019531-74.019531 13.359375-15.035156 75.695312 75.691406zm26.265625-23.34375-76.941406-76.941406 55.273437-62.1875 83.855469 83.855469zm182.746094-107.382812-67.808594 67.8125c-2.117188 2.113281-4.925781 3.277344-7.917969 3.277344-2.992187 0-5.800781-1.164063-7.917969-3.28125v.003906l-136.472656-136.472656c-4.363281-4.367188-4.363281-11.46875 0-15.835938l67.8125-67.808594c2.113282-2.117187 4.925782-3.28125 7.914063-3.28125 2.992187 0 5.804687 1.164063 7.917969 3.28125l18.542968 18.542969c.011719.007813.019532.015625.027344.027344l117.902344 117.902343c4.367187 4.363282 4.367187 11.46875 0 15.832032zm-170.300782-90.300782c-2.929687-2.929687-7.675781-2.929687-10.605468 0-2.929688 2.929688-2.929688 7.675782 0 10.605469l32.320312 32.316407c1.464844 1.464843 3.382813 2.199218 5.300782 2.199218 1.921874 0 3.839843-.734375 5.304687-2.199218 2.929687-2.929688 2.929687-7.675782 0-10.605469zm38.953126-6.636718c-2.929688-2.929688-7.675782-2.929688-10.605469 0-2.929688 2.929687-2.929688 7.679687 0 10.605468l16.15625 16.160157c1.464843 1.464843 3.386719 2.195312 5.304687 2.195312 1.917969 0 3.839844-.730469 5.304688-2.195312 2.929687-2.929688 2.929687-7.679688 0-10.605469zm0 0"/></svg>